<svg xmlns="http://www.w3.org/2000/svg" viewBox="604 -43.5 240 240" width="64" height="64"><defs><linearGradient id="ring" gradientUnits="userSpaceOnUse" x1="620" y1="146" x2="830" y2="8"><stop offset="0" stop-color="#044F93"/><stop offset=".34" stop-color="#1585AE"/><stop offset=".66" stop-color="#33B8CC"/><stop offset="1" stop-color="#45E3DC"/></linearGradient></defs><rect x="604" y="-43.5" width="240" height="240" rx="52" fill="#160B3C"/><path d="M715.8 146.2C702.3 144.1 689.8 138.9 680.8 131.4L678.4 129.4L672.6 131.2C644.2 140 623.2 140.7 618.3 133.2C616.7 130.9 617.6 123.7 619.8 119.2C624.7 109.7 637.1 96.2 650.6 85.7L654.4 82.8L654.7 75C656.1 36.5 686.2 7.3 724.2 7.3C739 7.3 751.6 11.1 763.5 19.2C765.7 20.8 767.8 22 768.1 22C768.4 22 770.8 21.3 773.4 20.5C791.7 14.6 809.5 11.7 818.7 13C841.1 16.1 833.2 36.4 798.9 64L793.8 68.2L793.9 75.5C794.6 109 772.2 137.4 739 145.1C734.8 146 719.6 146.8 715.8 146.2ZM654.6 117.8C681.6 113.7 732.6 90.1 769 64.8C803.1 41.1 812.5 24.3 791 25.7C787 25.9 775.8 28.1 775.2 28.7C775 28.8 776 30.1 777.3 31.6C779.6 34.3 784.3 40.9 784.8 42.2C785.1 43 777.5 48.9 767.5 55.5L761.3 59.6L759.9 56.8C757.8 53 753.6 48 750.1 45.2C727.4 27.2 694.6 36.9 685.4 64.5C683.9 68.9 683.8 69.7 683.8 76.5C683.8 84.7 684.4 87.8 687.3 94C688.2 96 688.8 97.9 688.6 98.1C687.3 99.4 662.6 108.8 662 108.2C661.3 107.4 658.1 99.3 657 95.5C656.5 93.5 655.9 91.8 655.8 91.7C655.7 91.5 653 94 649.8 97C633.5 112.7 635.3 120.7 654.6 117.8ZM733.1 116.8C743.5 114.6 753.9 107 759.4 97.7C761.2 94.6 763 90.6 763 89.5C763 89.2 760.2 90.7 756.7 92.8C747 98.6 732.8 106.2 722.1 111.3C712.6 115.8 712.5 115.9 714.1 116.4C718 117.6 728.1 117.8 733.1 116.8Z" fill="url(#ring)" fill-rule="evenodd"/></svg>